<svg xmlns="http://www.w3.org/2000/svg" version="1.1" xmlns:xlink="http://www.w3.org/1999/xlink" xmlns:svgjs="http://svgjs.com/svgjs" width="1440" height="560" preserveAspectRatio="none" viewBox="0 0 1440 560"><g mask="url(&quot;#SvgjsMask1011&quot;)" fill="none"><rect width="1440" height="560" x="0" y="0" fill="rgba(17, 24, 39, 1)"></rect><path d="M591.18 625.61C725.53 544.48 657.02 80.88 897.54 77.64 1138.07 74.4 1343.64 335.35 1510.27 340.84" stroke="rgba(245, 158, 11, 1)" stroke-width="2"></path><path d="M384.33 666.62C514.67 630.59 468.38 269.15 749.45 267.5 1030.53 265.85 1293.55 412.39 1479.7 413.1" stroke="rgba(245, 158, 11, 1)" stroke-width="2"></path><path d="M218.57 641.11C339.58 634.33 429.47 415.65 647.42 415.02 865.36 414.39 861.84 485.02 1076.26 485.02 1290.69 485.02 1396.48 415.25 1505.11 415.02" stroke="rgba(245, 158, 11, 1)" stroke-width="2"></path><path d="M491.32 649.07C602.8 636.25 554.02 401.68 857.07 388.89 1160.13 376.1 1394.73 135.02 1588.58 131.29" stroke="rgba(245, 158, 11, 1)" stroke-width="2"></path><path d="M453.25 663.83C566.54 654.69 642.78 427.7 841.2 426.76 1039.62 425.82 1035.17 496.76 1229.15 496.76 1423.13 496.76 1518.55 427.04 1617.1 426.76" stroke="rgba(245, 158, 11, 1)" stroke-width="2"></path></g><defs><mask id="SvgjsMask1011"><rect width="1440" height="560" fill="#ffffff"></rect></mask></defs></svg>