<?xml version="1.0" standalone="no"?>
<!DOCTYPE svg PUBLIC "-//W3C//DTD SVG 20010904//EN"
 "http://www.w3.org/TR/2001/REC-SVG-20010904/DTD/svg10.dtd">
<svg version="1.0" xmlns="http://www.w3.org/2000/svg"
 width="150.000000pt" height="150.000000pt" viewBox="0 0 150.000000 150.000000"
 preserveAspectRatio="xMidYMid meet">
<metadata>
Created by potrace 1.14, written by Peter Selinger 2001-2017
</metadata>
<g transform="translate(0.000000,150.000000) scale(0.100000,-0.100000)"
fill="#000000" stroke="none">
<path d="M230 1462 c-61 -29 -64 -47 -65 -357 l0 -280 -55 -3 c-79 -5 -101
-32 -73 -90 16 -34 50 -52 96 -52 l32 0 0 -288 c1 -314 1 -318 62 -353 25 -15
88 -17 605 -15 l578 1 30 30 c17 17 33 42 36 55 6 33 7 1248 0 1280 -3 13 -19
38 -36 55 l-30 30 -575 1 c-492 1 -578 -1 -605 -14z m1184 -57 c23 -30 22
-200 0 -209 -9 -4 -19 -5 -21 -2 -2 2 -5 37 -6 77 -4 124 57 112 -562 113
-465 1 -538 -1 -550 -14 -15 -17 -17 -57 -16 -296 l1 -160 106 0 c58 1 111 -2
117 -6 12 -7 15 -303 3 -315 -3 -3 -55 -6 -116 -6 l-110 0 -1 -76 c-2 -288 1
-366 16 -380 12 -12 94 -15 537 -15 475 -1 564 2 569 23 1 3 3 39 4 79 1 50 6
76 15 82 25 16 30 0 30 -95 0 -100 -8 -119 -53 -130 -12 -3 -271 -4 -576 -3
l-554 3 -16 24 c-13 21 -16 65 -16 303 0 153 3 278 7 278 4 0 24 -12 45 -26
52 -35 105 -28 150 20 27 30 31 40 29 81 -3 59 -42 101 -101 110 -33 6 -47 2
-78 -19 -21 -14 -41 -26 -45 -26 -10 0 -8 539 2 568 4 13 17 27 29 32 12 5
275 8 584 7 549 -2 562 -2 577 -22z m-78 -141 c1 -69 0 -71 -22 -68 -22 2 -24
-1 -24 -46 l0 -49 -39 1 c-22 0 -43 -2 -48 -5 -7 -4 -9 -73 -4 -129 1 -5 21
-8 46 -8 l45 0 0 -48 c0 -44 2 -49 23 -48 22 1 22 -1 22 -114 0 -108 -1 -115
-20 -115 -17 0 -20 -8 -23 -47 l-3 -48 -45 0 c-28 0 -44 -5 -45 -12 -5 -58 -2
-121 4 -125 5 -3 26 -5 47 -5 l39 1 3 -47 c3 -39 6 -47 23 -47 18 0 20 -7 20
-70 l0 -70 -510 0 -510 0 -3 138 c-2 105 0 137 10 138 7 1 173 2 368 3 195 1
365 5 377 9 12 4 25 20 30 35 5 15 9 138 9 274 -1 244 -1 248 -24 270 l-22 23
-373 0 -372 0 -3 129 c-1 72 -1 135 1 140 3 8 165 11 513 11 l509 0 1 -71z
m92 -161 l-3 -47 -42 -1 -43 -1 0 47 0 46 46 1 45 1 -3 -46z m-138 -74 c0 -12
-7 -19 -18 -19 -25 0 -31 7 -25 29 6 25 43 16 43 -10z m142 -60 c4 -46 -4 -55
-52 -54 -32 0 -35 3 -38 33 -5 50 2 60 46 60 39 1 40 0 44 -39z m-2 -216 c0
-93 -3 -115 -15 -120 -9 -3 -18 -3 -21 0 -5 5 -8 165 -5 219 1 10 9 16 21 15
19 -1 20 -8 20 -114z m-1056 46 c33 -26 34 -62 1 -94 -30 -31 -56 -32 -92 -1
-24 20 -39 24 -88 23 -33 0 -72 2 -87 6 -31 8 -38 37 -10 38 9 0 49 1 87 1 58
1 75 5 98 24 35 29 57 30 91 3z m1056 -261 l0 -47 -42 2 c-41 2 -43 4 -46 35
-5 51 2 59 47 58 l41 0 0 -48z m-140 -67 c0 -22 -30 -37 -41 -20 -11 18 1 39
22 39 12 0 19 -7 19 -19z m140 -72 l0 -46 -45 -1 -45 -1 0 47 0 48 45 0 45 0
0 -47z"/>
<path d="M352 1268 c3 -25 36 -37 48 -17 13 20 0 39 -27 39 -20 0 -24 -4 -21
-22z"/>
<path d="M448 1278 c-8 -22 3 -38 26 -38 18 0 23 5 22 23 -1 25 -40 37 -48 15z"/>
<path d="M540 1264 c0 -21 4 -25 23 -22 14 2 23 11 25 26 3 18 -1 22 -22 22
-21 0 -26 -5 -26 -26z"/>
<path d="M636 1274 c-8 -21 1 -34 24 -34 10 0 21 4 24 9 10 16 -5 41 -24 41
-10 0 -21 -7 -24 -16z"/>
<path d="M967 253 c-4 -3 -7 -15 -7 -25 0 -13 7 -18 25 -18 20 0 25 5 25 25 0
18 -5 25 -18 25 -10 0 -22 -3 -25 -7z"/>
<path d="M1057 247 c-8 -21 8 -39 29 -35 27 5 25 42 -2 46 -12 2 -24 -3 -27
-11z"/>
<path d="M1150 236 c0 -21 5 -26 26 -26 21 0 25 4 22 23 -2 14 -11 23 -25 25
-19 3 -23 -1 -23 -22z"/>
<path d="M1249 258 c-1 -2 -3 -13 -4 -25 -2 -18 3 -23 20 -23 28 0 34 7 28 31
-4 15 -38 28 -44 17z"/>
</g>
</svg>
