<?xml version="1.0" standalone="no"?>
<!DOCTYPE svg PUBLIC "-//W3C//DTD SVG 20010904//EN"
 "http://www.w3.org/TR/2001/REC-SVG-20010904/DTD/svg10.dtd">
<svg version="1.0" xmlns="http://www.w3.org/2000/svg"
 width="529.000000pt" height="529.000000pt" viewBox="0 0 529.000000 529.000000"
 preserveAspectRatio="xMidYMid meet">
<metadata>
Created by potrace 1.14, written by Peter Selinger 2001-2017
</metadata>
<g transform="translate(0.000000,529.000000) scale(0.100000,-0.100000)"
fill="#000000" stroke="none">
<path d="M2282 5040 c-29 -4 -58 -13 -65 -18 -7 -6 -35 -9 -62 -6 -36 3 -46 2
-35 -5 8 -6 11 -11 5 -11 -88 -3 -217 -44 -198 -63 3 -4 -1 -7 -10 -7 -9 0
-19 -4 -22 -10 -4 -6 1 -7 12 -3 15 5 16 4 5 -8 -10 -11 -16 -11 -33 -1 -12 8
-18 9 -15 4 3 -5 -2 -16 -11 -23 -15 -12 -16 -12 -9 6 6 16 5 18 -5 8 -19 -19
-33 -15 -18 5 13 15 12 16 -4 3 -10 -8 -16 -20 -13 -28 3 -7 -1 -19 -10 -25
-8 -7 -21 -18 -28 -25 -9 -8 -17 -8 -23 -2 -7 7 -15 6 -24 -3 -8 -7 -27 -19
-42 -27 -15 -8 -46 -31 -69 -50 -32 -28 -38 -30 -29 -12 7 12 11 25 8 27 -6 6
-77 -73 -77 -86 0 -6 -11 -10 -24 -10 -14 0 -34 -12 -48 -28 -12 -15 -27 -29
-33 -31 -5 -2 -16 -15 -23 -30 -7 -14 -10 -17 -7 -6 5 18 3 18 -14 -3 -11 -13
-18 -29 -15 -37 3 -7 -3 -18 -14 -24 -12 -6 -22 -26 -26 -51 -4 -27 -10 -39
-18 -34 -7 5 -9 -2 -5 -22 5 -26 4 -27 -8 -10 -13 16 -16 14 -39 -33 -14 -28
-26 -56 -26 -63 1 -7 7 2 15 20 18 41 26 42 15 1 l-9 -32 24 23 c13 13 22 27
18 33 -3 6 -1 7 4 4 6 -4 50 25 98 63 97 78 176 118 315 162 52 17 106 35 119
42 15 7 87 11 196 10 141 -1 185 -5 246 -22 41 -12 116 -33 168 -48 110 -31
157 -49 167 -65 4 -8 9 -7 15 2 6 10 9 8 9 -9 0 -13 4 -21 9 -18 5 4 12 -7 16
-24 4 -16 13 -30 21 -30 12 0 13 -3 0 -22 -7 -13 -16 -35 -20 -50 -3 -16 -12
-27 -19 -25 -7 1 -12 -10 -13 -30 -1 -18 2 -30 6 -28 33 21 173 21 202 1 18
-13 18 -14 -4 -19 -12 -4 -25 -1 -29 5 -7 10 -28 12 -88 6 -23 -3 -17 -18 7
-19 9 0 4 -5 -13 -10 -32 -9 -46 2 -39 30 2 9 -1 4 -8 -10 -8 -15 -19 -24 -27
-21 -8 2 -11 0 -8 -5 3 -5 0 -10 -8 -10 -10 0 -11 5 -4 19 6 12 6 18 0 18 -6
0 -15 -9 -22 -21 -8 -15 -14 -18 -22 -10 -7 7 -3 17 17 32 15 12 24 24 21 27
-3 3 -23 -14 -44 -37 -24 -26 -44 -40 -51 -36 -7 4 -18 -2 -27 -15 -11 -16
-18 -19 -27 -10 -8 8 -7 13 3 19 9 6 10 11 2 15 -7 4 -8 18 -5 34 l7 27 -22
-19 c-12 -11 -20 -25 -17 -32 5 -13 -20 -27 -34 -19 -5 3 -11 1 -15 -5 -3 -5
-18 -10 -32 -10 -15 0 -35 -8 -45 -17 -15 -14 -21 -15 -27 -4 -6 9 -12 4 -22
-18 -10 -23 -20 -31 -39 -31 -14 0 -31 5 -37 11 -8 8 -13 5 -18 -11 -9 -29
-12 -150 -4 -150 4 0 7 -10 8 -22 2 -44 5 -68 11 -68 3 0 16 -9 30 -20 25 -19
24 -19 -45 0 -38 11 -86 20 -106 20 -35 0 -93 -22 -104 -40 -3 -5 -19 -15 -35
-24 -28 -14 -29 -13 -20 4 7 13 7 21 -1 25 -6 5 -5 11 6 19 20 14 30 117 12
128 -9 6 -9 8 1 8 14 0 16 46 2 55 -5 3 -10 -1 -10 -9 0 -19 -16 -21 -23 -3
-4 8 -6 6 -6 -4 -1 -19 -70 -44 -100 -36 -14 3 -21 0 -21 -9 0 -8 -4 -15 -10
-15 -5 -1 -15 -2 -20 -3 -6 0 -15 -8 -20 -16 -8 -12 -10 -10 -10 8 l0 23 -25
-25 c-14 -14 -25 -30 -25 -36 0 -5 -4 -10 -10 -10 -5 0 -10 7 -10 16 0 14 -2
14 -17 -1 -10 -11 -27 -15 -45 -13 -20 3 -28 0 -28 -11 0 -12 -3 -12 -12 -3
-19 19 -31 14 -25 -9 5 -19 4 -20 -12 -5 -25 23 -32 20 -21 -8 8 -22 6 -24
-25 -28 -18 -2 -32 -1 -29 3 5 9 -27 21 -35 13 -3 -4 0 -9 7 -11 20 -8 3 -23
-26 -23 -15 -1 -38 -8 -52 -16 -17 -11 -19 -13 -5 -9 41 14 75 16 75 5 0 -7
-6 -10 -12 -7 -7 2 -29 -2 -50 -9 -20 -7 -39 -10 -43 -6 -3 3 -3 -1 0 -10 4
-9 14 -19 23 -21 10 -3 6 -5 -10 -6 -17 -1 -28 5 -31 17 -3 10 -5 6 -6 -11 -1
-22 -5 -27 -18 -23 -10 3 -25 1 -33 -4 -12 -8 -12 -10 5 -10 11 0 26 -9 32
-19 11 -18 10 -18 -17 -8 -16 6 -32 8 -36 5 -11 -12 7 -28 30 -28 13 0 29 -7
37 -16 11 -13 9 -14 -17 -9 -22 5 -25 4 -14 -4 8 -6 22 -11 31 -11 9 0 20 -7
23 -16 3 -8 2 -12 -3 -9 -5 3 -12 1 -16 -5 -3 -5 -2 -10 3 -10 6 0 8 -9 5 -20
-3 -12 -8 -19 -10 -16 -6 6 -26 -9 -74 -56 -21 -21 -43 -38 -49 -38 -5 0 -10
-8 -10 -19 0 -10 -11 -34 -24 -54 -22 -32 -32 -54 -44 -97 -12 -42 -16 -174
-6 -189 6 -9 15 -27 19 -40 4 -14 16 -34 26 -45 19 -19 19 -19 19 0 0 15 2 16
10 4 7 -12 11 -10 18 10 31 79 54 119 86 150 19 19 36 41 36 48 0 7 6 15 14
18 8 3 12 13 9 24 -7 26 12 32 32 10 19 -21 41 -28 29 -9 -5 8 1 10 18 6 15
-4 51 3 93 18 37 14 70 25 72 25 2 0 2 4 -1 9 -3 4 5 18 17 30 l23 21 22 -24
21 -25 -40 -35 c-21 -20 -39 -40 -39 -45 0 -5 -8 -12 -18 -15 -20 -7 -67 -48
-92 -80 -15 -19 -14 -19 15 -2 l30 18 -25 -21 c-14 -12 -47 -39 -75 -60 -27
-21 -71 -63 -97 -92 -225 -259 -229 -265 -276 -354 -53 -100 -84 -361 -49
-410 15 -20 37 -13 37 11 0 8 4 12 10 9 5 -3 7 0 4 8 -3 8 0 18 6 22 6 4 8 14
5 23 -3 11 3 22 15 30 19 12 20 10 15 -15 -4 -22 -1 -20 11 10 18 40 30 47 36
20 3 -15 5 -14 10 5 4 13 2 20 -3 16 -12 -7 -3 46 10 59 5 5 11 5 15 -2 10
-15 26 -14 26 2 0 6 14 25 31 42 30 28 31 28 24 6 -5 -18 -4 -22 5 -16 9 5 11
4 6 -3 -4 -7 -14 -12 -22 -12 -17 0 -18 -12 -2 -28 8 -8 8 -15 -3 -28 -8 -9
-13 -19 -11 -21 1 -1 2 -13 2 -24 0 -17 -5 -20 -21 -16 -16 4 -24 -2 -35 -29
-8 -19 -12 -39 -9 -44 4 -6 1 -10 -5 -10 -6 0 -8 -5 -5 -10 3 -6 -1 -13 -9
-16 -9 -3 -13 -10 -10 -15 3 -5 2 -9 -3 -9 -4 0 -17 -18 -27 -40 -14 -30 -22
-37 -29 -28 -6 9 -7 6 -4 -10 5 -20 3 -21 -11 -10 -13 11 -15 11 -10 -3 4 -11
-6 -30 -28 -53 -19 -20 -34 -41 -34 -46 0 -14 -17 -12 -24 3 -3 6 -3 2 0 -10
3 -13 1 -23 -4 -23 -6 0 -15 -28 -21 -62 l-10 -63 3 70 c3 44 1 61 -4 45 -4
-14 -8 -56 -9 -93 -2 -108 38 -164 184 -261 l70 -46 5 37 6 38 8 -35 c4 -19
10 -43 13 -54 4 -13 1 -16 -7 -11 -10 6 -12 -9 -8 -68 4 -65 12 -90 55 -179
28 -57 54 -114 58 -128 34 -116 217 -322 414 -465 61 -44 110 -83 111 -87 0
-3 -8 -9 -17 -11 -16 -4 -16 -5 -1 -6 9 0 19 3 22 8 7 11 62 -14 72 -32 5 -8
3 -8 -7 0 -16 15 -49 17 -49 3 0 -5 5 -10 12 -10 6 0 3 -7 -8 -16 -18 -15 -17
-15 15 -10 29 5 33 3 29 -12 -3 -12 2 -24 13 -31 11 -6 19 -20 19 -32 0 -21
109 -139 129 -139 6 0 16 -11 23 -24 6 -14 23 -30 39 -36 16 -7 26 -16 24 -21
-3 -4 12 -17 34 -28 21 -11 47 -31 58 -43 22 -28 83 -58 121 -59 17 -1 20 -3
10 -6 -19 -5 -25 -33 -8 -33 6 0 10 -6 10 -14 0 -14 55 -30 70 -21 4 3 11 -6
14 -20 l6 -25 1460 0 1460 0 0 315 0 315 -68 0 c-37 0 -110 -10 -162 -22 -52
-12 -113 -21 -135 -20 -22 1 -58 -3 -81 -9 -36 -9 -50 -8 -105 14 -80 31 -208
74 -274 92 -84 22 -369 74 -413 75 -10 0 -13 -19 -10 -85 3 -85 -8 -107 -14
-26 -2 34 -9 49 -30 64 -26 19 -29 20 -46 4 -10 -9 -22 -14 -25 -10 -4 3 -7 1
-7 -6 0 -7 6 -11 14 -8 20 8 28 -4 14 -20 -9 -11 -9 -17 3 -24 8 -5 10 -9 6
-9 -4 0 -3 -9 3 -20 9 -16 8 -20 -5 -20 -8 0 -15 7 -15 16 0 9 -9 18 -20 21
-22 6 -26 19 -7 26 6 2 5 3 -4 2 -9 -1 -23 1 -30 6 -11 7 -9 10 9 15 17 5 21
11 17 25 -4 12 -1 21 10 25 9 4 14 13 10 22 -3 8 1 22 9 31 22 25 26 98 4 85
-6 -4 -8 -3 -5 3 4 6 3 30 -1 54 -6 34 -3 61 14 116 12 39 19 83 17 96 -3 14
0 28 6 31 6 4 11 18 11 31 0 13 5 27 10 30 6 3 8 29 6 56 -3 36 0 54 12 65 15
15 14 16 -8 9 l-25 -7 24 26 c14 14 19 26 12 26 -7 0 -9 5 -6 10 4 6 11 8 16
5 5 -4 9 1 9 10 0 10 -5 13 -12 9 -29 -17 -75 -50 -103 -74 -28 -23 -28 -23
-10 -2 11 13 42 40 69 60 27 20 90 77 139 127 l89 90 -6 93 c-6 89 -5 94 19
118 13 13 34 24 47 24 44 0 126 47 152 87 26 39 52 155 40 175 -6 10 -8 21
-12 86 -1 13 -5 21 -9 19 -5 -3 -6 18 -4 45 2 34 6 46 12 37 14 -23 11 136 -6
252 -17 126 -36 181 -76 232 -38 47 -48 81 -55 177 -3 41 -7 81 -10 89 -2 8 1
18 8 22 8 5 9 12 2 21 -6 7 -16 51 -23 98 -7 47 -15 94 -17 105 -5 20 -5 20
10 1 19 -24 21 -8 3 19 -25 37 -62 250 -53 300 l8 39 20 -33 c25 -39 48 -129
48 -191 1 -38 2 -42 12 -26 7 12 8 41 3 80 -4 33 -7 73 -8 88 0 15 -4 25 -8
22 -5 -2 -22 23 -40 57 -32 65 -33 78 -11 177 5 23 6 42 2 42 -3 0 -16 17 -28
38 -11 21 -30 46 -42 57 -11 10 -20 22 -20 27 0 20 -152 231 -218 303 -15 16
-21 25 -13 20 9 -5 7 2 -5 18 -10 15 -25 27 -33 27 -7 0 -11 6 -8 14 5 13 -90
116 -108 116 -5 0 7 -15 26 -34 45 -44 62 -66 56 -72 -3 -3 -15 8 -28 25 -13
17 -27 31 -32 31 -8 0 -49 29 -89 64 -9 8 -50 36 -90 62 -40 26 -96 62 -124
81 -28 19 -62 36 -75 38 -29 4 -108 32 -123 44 -26 21 -143 79 -171 84 -16 3
-39 9 -49 13 -13 5 -17 4 -12 -4 4 -6 21 -16 39 -21 29 -8 29 -9 7 -10 -14 -1
-40 8 -58 19 -17 11 -47 26 -65 34 -30 12 -33 12 -34 -5 -1 -10 18 -39 43 -65
24 -26 44 -50 44 -53 0 -6 -50 41 -96 89 -35 36 -46 63 -17 39 14 -12 16 -12
11 1 -6 21 -38 26 -38 6 0 -8 14 -32 32 -53 18 -21 39 -47 47 -58 15 -19 15
-19 -4 -5 -11 8 -23 19 -27 25 -4 5 -10 6 -14 2 -4 -3 -1 -15 7 -24 8 -10 -6
0 -31 21 -25 22 -56 55 -68 74 -13 18 -26 31 -29 28 -3 -2 2 -15 11 -28 9 -12
16 -29 16 -38 0 -9 -7 -5 -17 11 -9 15 -29 34 -45 43 -30 18 -36 16 -15 -6 7
-7 18 -26 25 -43 l12 -30 -18 25 c-9 14 -28 35 -42 48 -14 12 -44 40 -68 61
-24 22 -58 42 -77 45 -19 4 -37 12 -41 18 -5 8 -1 9 10 5 27 -10 96 -20 96
-14 0 10 -101 35 -183 46 -87 12 -117 12 -195 1z m78 -29 c0 -5 -9 -7 -20 -4
-11 3 -20 7 -20 9 0 2 9 4 20 4 11 0 20 -4 20 -9z m160 0 c0 -5 -9 -7 -20 -4
-11 3 -20 7 -20 9 0 2 9 4 20 4 11 0 20 -4 20 -9z m-505 -50 c-12 -12 -65 -25
-65 -17 0 8 39 24 60 25 9 1 10 -2 5 -8z m342 3 c-3 -3 -12 -4 -19 -1 -8 3 -5
6 6 6 11 1 17 -2 13 -5z m-317 -58 c0 -8 -61 -12 -66 -4 -3 4 11 8 30 8 20 0
36 -2 36 -4z m-70 -21 c0 -2 -15 -12 -32 -21 l-33 -17 19 22 c17 19 46 29 46
16z m1090 -106 c0 -6 -4 -7 -10 -4 -5 3 -10 11 -10 16 0 6 5 7 10 4 6 -3 10
-11 10 -16z m140 11 c0 -5 -4 -10 -9 -10 -6 0 -13 5 -16 10 -3 6 1 10 9 10 9
0 16 -4 16 -10z m-960 -144 c0 -11 -19 -15 -25 -6 -3 5 1 10 9 10 9 0 16 -2
16 -4z m510 -406 c0 -5 -2 -10 -4 -10 -3 0 -8 5 -11 10 -3 6 -1 10 4 10 6 0
11 -4 11 -10z m-325 -69 c3 -5 1 -12 -5 -16 -5 -3 -10 1 -10 9 0 18 6 21 15 7z
m-545 -291 c0 -5 -5 -10 -11 -10 -5 0 -7 5 -4 10 3 6 8 10 11 10 2 0 4 -4 4
-10z m157 -110 c-27 -5 -50 -10 -52 -12 -3 -3 -16 -100 -18 -140 -1 -10 -5
-18 -9 -18 -4 0 -7 -3 -7 -7 5 -32 -4 -203 -10 -183 -6 23 -1 139 14 295 3 32
11 63 18 67 6 4 35 7 62 7 l50 -1 -48 -8z m803 -15 c0 -9 -11 -20 -24 -26 -16
-8 -23 -19 -22 -34 1 -16 5 -20 12 -14 7 6 16 3 25 -8 12 -15 12 -16 -3 -10
-23 8 -22 6 2 -37 12 -19 17 -36 13 -39 -4 -3 -37 -8 -73 -12 -36 -3 -74 -9
-85 -11 -16 -4 -14 -1 5 10 14 9 33 15 42 16 9 0 19 4 23 9 3 6 -9 7 -30 4
-32 -5 -35 -4 -32 16 2 13 8 26 13 29 5 4 15 20 22 35 7 15 16 26 21 22 6 -3
22 10 37 30 27 36 54 46 54 20z m-915 -54 c2 -30 0 -49 -6 -46 -5 4 -9 -5 -9
-18 0 -14 -6 -30 -14 -37 -8 -6 -12 -18 -9 -26 3 -8 0 -14 -7 -14 -6 0 -8 5
-5 10 13 21 -14 9 -33 -15 -11 -13 -22 -22 -25 -19 -9 9 -45 -19 -50 -38 -3
-10 -1 -16 3 -13 5 3 11 -4 15 -15 3 -11 10 -20 14 -20 5 0 7 -10 6 -22 -3
-32 -3 -32 -20 -18 -12 10 -16 8 -24 -11 -5 -13 -7 -27 -4 -31 2 -5 0 -8 -6
-8 -5 0 -11 6 -14 13 -2 6 -8 0 -12 -15 -4 -15 -13 -29 -22 -32 -10 -4 -12
-13 -8 -28 5 -18 4 -20 -4 -8 -9 12 -11 10 -11 -10 -1 -23 -1 -24 -12 -6 -10
17 -13 13 -25 -34 -12 -46 -11 -56 2 -76 18 -28 20 -45 3 -21 -11 14 -17 15
-37 4 -31 -15 -37 -33 -11 -33 11 0 20 7 20 15 0 12 2 13 13 2 10 -10 7 -16
-12 -30 -13 -10 -24 -29 -25 -42 0 -13 -8 -25 -16 -25 -8 -1 -21 -2 -27 -3 -7
0 -13 -6 -13 -12 0 -5 5 -7 10 -4 6 3 15 -6 20 -21 8 -21 8 -29 -2 -36 -10 -6
-10 -8 1 -8 8 0 11 -3 7 -7 -10 -10 -46 -11 -46 -1 0 4 3 8 8 8 4 0 8 11 8 25
2 32 -4 32 -16 -1 -8 -20 -14 -24 -32 -18 -19 6 -21 4 -12 -7 10 -13 10 -43 1
-127 -8 -73 -38 -45 -33 31 3 33 1 46 -6 39 -6 -6 -12 -34 -13 -62 -4 -56 -11
-72 -24 -51 -12 19 -33 3 -26 -20 4 -13 2 -19 -6 -17 -7 2 -15 -8 -18 -22 l-7
-24 -17 24 -17 24 -1 -24 -1 -25 -11 27 c-6 15 -16 29 -23 32 -8 3 -8 -3 2
-23 12 -23 11 -32 -4 -64 -9 -20 -23 -36 -29 -37 -17 0 -17 -27 0 -34 6 -3 -1
-2 -17 1 -22 4 -33 1 -43 -12 -11 -16 -13 -16 -13 -3 0 9 -6 18 -14 21 -10 4
-12 0 -9 -14 4 -13 0 -19 -11 -19 -10 0 -14 -4 -11 -10 3 -5 0 -10 -7 -10 -19
0 -50 -39 -42 -52 5 -7 2 -8 -6 -3 -9 6 -10 2 -5 -15 5 -15 4 -20 -4 -16 -6 4
-11 13 -11 20 0 18 24 66 33 66 5 0 5 5 2 10 -4 6 -11 8 -16 4 -6 -3 -10 0 -8
7 1 8 1 21 0 29 -1 13 -2 13 -11 0 -8 -12 -12 -13 -19 -2 -6 11 -10 10 -15 -3
-3 -9 -6 -26 -6 -38 0 -17 -2 -19 -9 -8 -7 11 -12 7 -24 -16 -10 -19 -12 -34
-6 -44 8 -13 6 -46 -8 -93 -5 -19 -6 -19 -19 -2 -11 16 -13 13 -20 -29 -4 -29
-2 -56 5 -71 6 -14 7 -23 2 -19 -5 3 -12 -7 -14 -22 -2 -16 -5 6 -6 48 -3 168
59 279 281 504 144 146 261 284 336 395 20 30 59 84 87 119 66 85 136 197 186
299 37 74 48 87 72 83 4 0 6 2 5 7 -3 8 25 53 30 48 1 -2 5 -27 7 -55z m1105
17 c0 -6 3 -8 6 -5 9 9 46 -12 40 -22 -3 -5 -17 -6 -31 -3 -16 3 -33 -2 -45
-13 -34 -30 -55 2 -23 37 18 20 53 24 53 6z m-964 -64 c42 -11 27 -27 -18 -20
-23 4 -44 9 -46 11 -9 9 11 26 25 21 8 -4 26 -9 39 -12z m884 -3 c0 -10 -9
-21 -20 -24 -25 -6 -25 -2 -2 22 22 25 22 25 22 2z m-70 -41 c0 -5 -4 -10 -10
-10 -5 0 -10 5 -10 10 0 6 5 10 10 10 6 0 10 -4 10 -10z m-1610 -30 c0 -5 -5
-10 -11 -10 -5 0 -7 5 -4 10 3 6 8 10 11 10 2 0 4 -4 4 -10z m1175 -27 c32
-15 47 -33 27 -33 -17 0 -72 32 -72 41 0 12 4 12 45 -8z m-1055 -169 c0 -9 -5
-12 -12 -8 -7 5 -8 3 -4 -5 5 -7 0 -18 -10 -26 -28 -21 -40 -18 -20 4 17 19
17 19 -3 14 -15 -4 -21 -1 -21 12 0 11 5 15 15 12 8 -4 17 -2 20 3 10 16 35
11 35 -6z m1810 -5 c28 -16 -14 -11 -51 6 l-34 16 35 -7 c19 -3 42 -10 50 -15z
m50 -19 c8 -5 11 -10 5 -10 -5 0 -17 5 -25 10 -8 5 -10 10 -5 10 6 0 17 -5 25
-10z m-1586 -136 c-5 -19 -4 -25 5 -20 6 4 11 3 11 -2 0 -5 -9 -12 -20 -15
-23 -6 -24 1 -10 37 13 34 22 33 14 0z m656 -32 c0 -4 -7 -16 -15 -26 -13 -18
-16 -18 -40 -2 -28 18 -30 28 -13 55 12 19 12 19 40 0 15 -11 28 -23 28 -27z
m840 -50 c0 -4 -4 -13 -9 -21 -7 -11 -13 -10 -35 4 -25 17 -33 35 -20 48 8 7
64 -20 64 -31z m-1414 -67 c-3 -8 2 -19 12 -24 9 -5 14 -12 11 -15 -11 -11
-42 21 -36 38 4 9 9 16 13 16 3 0 4 -7 0 -15z m-219 -166 c4 -16 8 -17 14 -7
6 9 9 9 9 1 0 -16 -13 -23 -26 -15 -16 10 -25 42 -13 42 6 0 13 -9 16 -21z
m-11 -64 c-4 -34 -16 -44 -16 -13 0 21 7 38 16 38 1 0 1 -11 0 -25z m249 -55
c-4 -11 -2 -20 4 -20 6 0 11 -5 11 -12 0 -8 -5 -7 -15 3 -9 9 -13 23 -9 32 9
24 17 21 9 -3z m-345 -40 c0 -5 -4 -10 -10 -10 -5 0 -10 5 -10 10 0 6 5 10 10
10 6 0 10 -4 10 -10z m24 -31 c-3 -5 -10 -7 -15 -3 -5 3 -7 10 -3 15 3 5 10 7
15 3 5 -3 7 -10 3 -15z m1405 -20 c22 -18 23 -22 11 -44 -17 -31 -21 -31 -49
-1 -20 21 -21 27 -9 45 16 25 17 25 47 0z m-1353 -24 c17 -26 12 -74 -11 -107
-11 -16 -13 -16 -34 8 -22 26 -22 26 -5 75 10 27 21 49 26 49 4 0 15 -11 24
-25z m-176 1 c0 -2 -7 -9 -15 -16 -12 -10 -15 -10 -15 4 0 9 7 16 15 16 8 0
15 -2 15 -4z m-5 -46 c3 -5 2 -10 -4 -10 -5 0 -13 5 -16 10 -3 6 -2 10 4 10 5
0 13 -4 16 -10z m65 -66 c0 -20 -31 -94 -39 -94 -4 0 -13 11 -20 24 -13 24 -8
73 12 110 9 19 10 19 28 -3 11 -13 19 -29 19 -37z m-326 -7 c3 -13 2 -36 -3
-52 -7 -28 -8 -29 -18 -10 -11 22 -5 98 7 90 4 -3 10 -15 14 -28z m165 -8 c-7
-4 -10 -12 -5 -16 4 -4 16 3 27 16 11 13 22 21 26 17 4 -3 -2 -12 -12 -20 -18
-13 -18 -17 -6 -40 12 -21 12 -30 2 -50 -7 -13 -14 -35 -14 -50 -2 -31 -11
-33 -31 -5 -8 12 -19 18 -25 14 -6 -3 -11 -2 -11 4 0 5 5 13 11 17 6 4 9 19 5
38 -4 20 -3 26 3 17 7 -11 10 -9 16 9 4 12 2 27 -3 32 -7 7 -5 16 6 29 11 12
18 15 21 8 2 -6 -3 -15 -10 -20z m657 0 c22 -20 22 -24 8 -50 -16 -33 -21 -34
-47 -14 -17 12 -18 18 -7 49 14 42 16 43 46 15z m2365 -6 c13 -16 12 -17 -3
-4 -17 13 -22 21 -14 21 2 0 10 -8 17 -17z m-3056 -13 c10 -11 13 -20 7 -20
-6 0 -16 9 -22 20 -6 11 -9 20 -7 20 2 0 12 -9 22 -20z m-183 -22 c-7 -7 -12
-8 -12 -2 0 14 12 26 19 19 2 -3 -1 -11 -7 -17z m138 -7 c0 -5 -7 -11 -15 -15
-9 -3 -15 0 -15 9 0 8 7 15 15 15 8 0 15 -4 15 -9z m3235 -72 c11 -13 -6 -1
-37 26 -32 27 -58 51 -58 53 0 7 74 -55 95 -79z m-2857 -85 c-6 -13 -15 -24
-19 -24 -13 0 -20 37 -13 66 l7 27 18 -22 c15 -18 16 -27 7 -47z m-484 42
c-10 -8 -21 -12 -24 -10 -5 6 21 24 34 24 6 0 1 -6 -10 -14z m344 -55 c21 -28
21 -31 6 -68 -9 -21 -18 -40 -20 -42 -8 -9 -44 33 -44 51 0 19 26 88 33 88 2
0 13 -13 25 -29z m-268 -66 c-7 -9 -15 -13 -17 -11 -7 7 7 26 19 26 6 0 6 -6
-2 -15z m128 -17 c15 -15 15 -29 2 -64 -11 -27 -11 -27 -25 -7 -10 14 -13 32
-9 52 7 34 14 37 32 19z m467 -47 c3 -5 1 -12 -5 -16 -5 -3 -10 1 -10 9 0 18
6 21 15 7z m1739 -20 c14 -15 15 -24 6 -40 -13 -26 -18 -26 -46 0 -19 18 -21
24 -11 40 15 24 29 24 51 0z m-909 -81 c17 -18 17 -21 1 -45 -17 -25 -17 -25
-46 -8 -35 20 -35 21 -14 51 19 27 36 28 59 2z m-1519 -37 c16 -21 19 -77 4
-68 -6 4 -8 11 -5 16 4 5 2 17 -4 26 -8 15 -10 14 -17 -11 -5 -22 -3 -32 11
-42 9 -7 15 -18 13 -25 -2 -7 -12 0 -22 15 -13 21 -16 38 -11 67 8 44 12 47
31 22z m3034 -18 c0 -13 -4 -27 -10 -30 -6 -4 -10 8 -10 30 0 22 4 34 10 30 6
-3 10 -17 10 -30z m275 -20 c-8 -21 -18 -36 -20 -33 -3 3 2 22 10 43 9 20 18
35 21 32 3 -3 -2 -22 -11 -42z m-3386 -32 c10 -19 9 -22 -4 -17 -8 4 -15 15
-15 27 0 23 2 22 19 -10z m649 -134 c8 -12 11 -32 7 -50 -8 -33 -12 -35 -36
-13 -14 13 -15 21 -6 50 12 40 17 42 35 13z m-138 -116 c-7 -21 -16 -42 -21
-47 -13 -14 -11 -3 7 39 14 34 14 39 -2 56 -10 11 -21 16 -25 12 -14 -15 -14
-50 0 -67 8 -9 11 -19 7 -23 -3 -4 -13 2 -21 13 -15 19 -14 40 5 89 l10 26 26
-30 c24 -28 25 -34 14 -68z m-145 -22 c3 -10 2 -28 -3 -40 -7 -20 -9 -21 -21
-7 -8 9 -11 26 -7 41 8 29 22 33 31 6z m282 -143 c-3 -8 -6 -5 -6 6 -1 11 2
17 5 13 3 -3 4 -12 1 -19z m-151 -53 c-14 -33 -14 -39 1 -61 12 -19 18 -22 24
-12 6 9 9 9 9 1 0 -23 -17 -22 -40 2 -20 21 -21 27 -10 62 15 45 20 56 27 50
2 -3 -3 -21 -11 -42z m167 -12 c11 -13 18 -23 14 -23 -13 0 -47 44 -46 59 0
14 1 14 6 1 3 -8 15 -25 26 -37z m-113 -7 c0 -18 -2 -17 -15 8 -19 36 -19 42
0 26 8 -7 15 -22 15 -34z m151 21 c-10 -9 -11 -8 -5 6 3 10 9 15 12 12 3 -3 0
-11 -7 -18z m-300 -44 c10 -19 13 -38 8 -58 l-7 -30 -1 32 c-1 40 -11 64 -22
57 -15 -9 -10 -58 7 -82 9 -13 14 -26 11 -28 -3 -3 -14 8 -25 24 -18 25 -19
34 -10 70 6 23 13 42 17 42 4 0 14 -12 22 -27z m2659 -83 c0 -5 -5 -10 -11
-10 -5 0 -7 5 -4 10 3 6 8 10 11 10 2 0 4 -4 4 -10z m-2846 -15 c3 -8 1 -15
-4 -15 -6 0 -10 7 -10 15 0 8 2 15 4 15 2 0 6 -7 10 -15z m23 -77 c-3 -7 -5
-2 -5 12 0 14 2 19 5 13 2 -7 2 -19 0 -25z m1967 -37 c18 -19 17 -20 -15 -29
-19 -5 -35 -8 -37 -7 -5 4 21 55 28 55 4 0 15 -9 24 -19z m-965 -238 c6 -4
-21 -63 -29 -63 -4 0 -15 9 -25 20 -15 17 -16 24 -5 50 12 30 13 30 34 13 11
-10 23 -19 25 -20z m1219 -7 c-15 -34 -42 -44 -32 -13 6 21 21 37 36 37 4 0 3
-11 -4 -24z m-986 -16 c-35 -22 -52 -25 -52 -11 0 10 44 29 70 30 8 1 0 -8
-18 -19z m-72 -20 c0 -5 -8 -10 -17 -10 -15 0 -16 2 -3 10 19 12 20 12 20 0z
m-214 -59 c-3 -5 -23 -12 -43 -15 -21 -4 -47 -10 -58 -13 -11 -3 -16 -2 -12 3
5 5 30 14 55 20 62 15 64 15 58 5z m-580 -38 c-7 -7 -26 7 -26 19 0 6 6 6 15
-2 9 -7 13 -15 11 -17z m454 8 c0 -4 -28 -12 -62 -16 -35 -4 -74 -9 -87 -11
-55 -7 -5 10 61 21 40 7 76 13 81 14 4 0 7 -3 7 -8z m-389 -68 c13 -16 12 -17
-3 -4 -17 13 -22 21 -14 21 2 0 10 -8 17 -17z m2304 -13 c-3 -5 -10 -10 -16
-10 -5 0 -9 5 -9 10 0 6 7 10 16 10 8 0 12 -4 9 -10z m-30 -170 c3 -5 1 -10
-4 -10 -6 0 -11 5 -11 10 0 6 2 10 4 10 3 0 8 -4 11 -10z m-1382 -7 c-7 -2
-21 -2 -30 0 -10 3 -4 5 12 5 17 0 24 -2 18 -5z m-629 -82 c4 -5 -3 -7 -14 -4
-23 6 -26 13 -6 13 8 0 17 -4 20 -9z"/>
<path d="M2785 3640 c3 -5 11 -10 16 -10 6 0 7 5 4 10 -3 6 -11 10 -16 10 -6
0 -7 -4 -4 -10z"/>
<path d="M2736 3632 c-2 -4 4 -9 15 -9 10 -1 19 2 19 8 0 11 -27 12 -34 1z"/>
<path d="M1865 3680 c-3 -5 -1 -10 4 -10 6 0 11 5 11 10 0 6 -2 10 -4 10 -3 0
-8 -4 -11 -10z"/>
<path d="M1873 3645 c4 -5 -5 -22 -20 -37 -17 -18 -21 -27 -11 -23 26 10 51
52 35 61 -6 4 -9 3 -4 -1z"/>
<path d="M1735 3430 c-3 -5 -1 -10 4 -10 6 0 11 5 11 10 0 6 -2 10 -4 10 -3 0
-8 -4 -11 -10z"/>
<path d="M1600 3170 c0 -5 5 -10 10 -10 6 0 10 5 10 10 0 6 -4 10 -10 10 -5 0
-10 -4 -10 -10z"/>
<path d="M1380 2845 c0 -5 5 -17 10 -25 5 -8 10 -10 10 -5 0 6 -5 17 -10 25
-5 8 -10 11 -10 5z"/>
<path d="M1322 2810 c-18 -29 -15 -38 4 -12 9 13 14 25 12 27 -2 2 -9 -5 -16
-15z"/>
<path d="M1350 2796 c-12 -32 -13 -52 -2 -42 4 4 7 11 8 14 0 4 4 15 9 25 4
10 5 21 2 24 -4 3 -11 -6 -17 -21z"/>
<path d="M1465 2810 c-3 -5 -1 -10 4 -10 6 0 11 5 11 10 0 6 -2 10 -4 10 -3 0
-8 -4 -11 -10z"/>
<path d="M1261 2694 c0 -11 3 -14 6 -6 3 7 2 16 -1 19 -3 4 -6 -2 -5 -13z"/>
<path d="M1237 2656 c-4 -10 -1 -13 8 -9 8 3 12 9 9 14 -7 12 -11 11 -17 -5z"/>
<path d="M957 2450 c-3 -11 -1 -23 4 -26 5 -3 9 6 9 20 0 31 -6 34 -13 6z"/>
<path d="M1460 2645 c-13 -35 -13 -40 5 -55 8 -7 15 -11 15 -9 0 2 4 18 9 34
6 22 4 34 -5 43 -12 11 -16 8 -24 -13z"/>
<path d="M1332 2555 c-6 -14 -9 -32 -5 -41 6 -15 7 -15 20 2 15 20 17 50 4 58
-4 3 -13 -6 -19 -19z"/>
<path d="M1216 2478 c-3 -13 -5 -32 -5 -43 0 -14 5 -10 15 14 9 21 12 37 6 43
-6 6 -12 0 -16 -14z"/>
<path d="M1496 2353 c-6 -14 -5 -15 5 -6 7 7 10 15 7 18 -3 3 -9 -2 -12 -12z"/>
<path d="M1343 2305 c-10 -31 -9 -40 3 -52 18 -18 20 -17 28 22 4 19 2 37 -7
49 -12 16 -14 15 -24 -19z"/>
<path d="M2805 4959 c16 -5 57 -11 90 -14 l60 -5 -60 14 c-33 8 -73 15 -90 14
l-30 0 30 -9z"/>
<path d="M2790 4940 c0 -5 5 -10 11 -10 5 0 7 5 4 10 -3 6 -8 10 -11 10 -2 0
-4 -4 -4 -10z"/>
<path d="M2970 4931 c8 -5 35 -12 60 -16 24 -4 47 -8 51 -10 3 -2 25 -8 49
-14 73 -16 29 7 -54 28 -85 22 -133 28 -106 12z"/>
<path d="M2854 4915 c11 -8 25 -15 30 -15 6 0 2 7 -8 15 -11 8 -25 15 -30 15
-6 0 -2 -7 8 -15z"/>
<path d="M1765 4860 c-3 -5 -1 -10 4 -10 6 0 11 5 11 10 0 6 -2 10 -4 10 -3 0
-8 -4 -11 -10z"/>
<path d="M2910 4822 c6 -13 14 -21 18 -18 3 4 -2 14 -12 24 -18 16 -18 16 -6
-6z"/>
<path d="M3315 4790 c3 -5 14 -10 23 -10 15 0 15 2 2 10 -20 13 -33 13 -25 0z"/>
<path d="M3590 4673 c13 -10 56 -44 94 -75 39 -32 72 -55 75 -53 2 3 2 6 0 8
-2 2 -31 26 -64 54 -33 27 -76 58 -95 67 -34 16 -34 16 -10 -1z"/>
<path d="M2510 4259 l-25 -20 25 7 c31 8 33 10 29 23 -2 5 -15 1 -29 -10z"/>
<path d="M2446 4234 c-7 -18 0 -34 15 -34 12 0 12 37 0 44 -5 3 -12 -1 -15
-10z"/>
<path d="M2490 4210 c0 -5 5 -10 11 -10 5 0 7 5 4 10 -3 6 -8 10 -11 10 -2 0
-4 -4 -4 -10z"/>
<path d="M1945 3990 c3 -5 8 -10 11 -10 2 0 4 5 4 10 0 6 -5 10 -11 10 -5 0
-7 -4 -4 -10z"/>
<path d="M1385 3870 c3 -5 15 -10 26 -10 10 0 19 5 19 10 0 6 -12 10 -26 10
-14 0 -23 -4 -19 -10z"/>
<path d="M1148 3653 c7 -3 16 -2 19 1 4 3 -2 6 -13 5 -11 0 -14 -3 -6 -6z"/>
<path d="M4242 3608 c0 -31 1 -31 9 -9 6 14 6 28 1 33 -5 5 -9 -5 -10 -24z"/>
<path d="M4245 3550 c-3 -5 -2 -17 3 -26 8 -14 10 -12 10 9 0 29 -3 33 -13 17z"/>
<path d="M4320 3040 c0 -5 5 -10 11 -10 5 0 7 5 4 10 -3 6 -8 10 -11 10 -2 0
-4 -4 -4 -10z"/>
<path d="M992 2270 c0 -14 2 -19 5 -12 2 6 2 18 0 25 -3 6 -5 1 -5 -13z"/>
<path d="M3945 760 c-3 -5 1 -10 10 -10 9 0 13 5 10 10 -3 6 -8 10 -10 10 -2
0 -7 -4 -10 -10z"/>
<path d="M1651 284 c0 -11 3 -14 6 -6 3 7 2 16 -1 19 -3 4 -6 -2 -5 -13z"/>
<path d="M1620 231 c0 -5 -9 -13 -20 -16 -23 -7 -27 -44 -7 -64 10 -11 9 -13
-1 -7 -7 4 -28 -5 -51 -23 -25 -20 -50 -31 -70 -31 -23 0 -31 -5 -31 -17 0
-15 -2 -16 -9 -4 -8 12 -11 9 -16 -11 -4 -14 -15 -28 -26 -31 -32 -9 -21 -27
17 -27 21 0 33 4 29 10 -3 6 1 10 10 10 9 0 13 -4 10 -10 -4 -6 36 -10 113
-10 94 0 121 3 125 14 8 21 -4 57 -16 49 -6 -4 -7 -1 -1 8 12 20 5 73 -12 82
-19 11 -18 31 1 23 8 -3 15 -1 15 4 0 6 -4 10 -10 10 -5 0 -7 7 -3 16 5 14 3
14 -15 3 -11 -7 -19 -16 -17 -19 2 -3 -5 -7 -16 -7 -11 -1 -19 3 -17 8 2 6 6
9 9 7 10 -5 39 24 33 33 -7 12 -24 12 -24 0z m45 -101 c3 -5 1 -10 -4 -10 -6
0 -11 5 -11 10 0 6 2 10 4 10 3 0 8 -4 11 -10z m-25 -35 c0 -8 -4 -15 -10 -15
-5 0 -7 7 -4 15 4 8 8 15 10 15 2 0 4 -7 4 -15z"/>
<path d="M1327 16 c-4 -10 -1 -13 9 -9 15 6 19 23 5 23 -5 0 -11 -7 -14 -14z"/>
</g>
</svg>
